<svg width="144" height="144" viewBox="0 0 144 144" fill="none" xmlns="http://www.w3.org/2000/svg">
<rect x="1" y="1" width="142" height="142" rx="71" stroke="#913AF6" stroke-opacity="0.7" stroke-width="2" stroke-linejoin="round" stroke-dasharray="1 0"/>
<path d="M42.5314 105.2C39.6376 102.789 39.3093 101.584 38.7723 91.8758C38.5336 87.5757 38.146 82.6566 37.9073 80.9626C36.6841 72.1995 37.2508 51.9694 38.9215 45.4215C39.6076 42.7502 39.8164 42.2941 41.0098 41.0562C43.2472 38.7106 41.2187 37.0166 38.1459 38.6455C32.8356 41.4471 33.7604 55.1619 34.8045 89.7583C35.1924 102.3 38.1459 108.718 43.2175 107.936C44.4705 107.741 44.2021 106.601 42.5314 105.2Z" fill="#913AF6" fill-opacity="0.7"/>
<path d="M109.838 72.0518C109.062 48.028 108.352 45.1827 102.213 41.238C97.0116 37.9077 100.436 39.298 93.49 36C93.49 36 77.0773 36.2263 72.4573 36.3557C54.9786 36.873 44.3818 37.8754 45.028 39.007C45.9972 40.753 46.5786 40.559 50.3263 40.559V43.857C50.3263 49.4184 51.3279 61.3171 51.8448 61.9314C52.2648 62.4164 54.4294 63.5804 55.9802 64.1948C59.5341 65.5528 84.6051 63.9038 88.1267 62.0608C90.0328 61.0908 90.2592 56.0467 88.8053 47.1874C88.0622 42.693 88.0621 41.238 87.9651 39.7507C95.6221 39.7507 95.6544 39.4597 99.2729 42.3373C100.791 43.5337 102.988 44.9887 104.507 46.0234C104.507 46.0557 106.413 95.3642 105.153 99.7939C104.668 101.508 101.858 101.475 92.6498 101.831C92.5206 100.344 92.5207 102.801 91.8099 91.4842C90.9699 77.5485 90.8408 76.8695 88.5469 74.2181C85.6069 70.7908 78.7252 69.9825 67.0943 71.5991C60.0188 72.6015 58.4357 73.0865 59.0173 74.1858C59.4373 74.9618 63.2496 75.0265 76.5605 74.5091C85.5098 74.1535 86.479 74.3152 87.1574 76.0288C87.3513 76.5138 87.6745 77.1605 87.9329 77.4191C88.8699 78.5185 89.0959 102.219 89.0959 102.251C80.5989 103.189 64.671 104.159 53.8802 104.676V102.122C53.8802 95.3642 51.1663 79.1005 54.6879 75.7378C56.7233 73.7978 54.1711 73.1835 51.748 75.0265C48.7756 77.2898 48.517 81.2992 49.8417 102.381C50.0355 105.161 50.0033 105.194 49.2602 105.226C47.0309 105.226 46.5462 105.905 47.9032 107.198C49.2278 108.459 66.5127 108.201 85.9945 106.649C91.6807 106.196 98.2393 105.711 100.598 105.549C105.089 105.258 106.316 104.838 107.964 102.995C109.612 101.184 110.355 88.3155 109.838 72.0518ZM82.5053 59.7651C80.5668 60.0561 78.0791 60.4118 77.0129 60.5734C74.1052 61.0261 65.3174 61.8021 60.2127 62.0608C53.3957 62.3841 54.3973 64.5505 52.8466 40.6237C63.8636 39.9447 74.6867 39.7183 85.7361 39.7183C85.7684 43.1134 85.7682 46.5407 86.2529 53.1044C86.7052 59.6681 86.9961 59.1508 82.5053 59.7651Z" fill="#913AF6" fill-opacity="0.7"/>
<path d="M82.9616 41.5891C82.6835 41.0983 78.1103 40.7711 77.5541 41.1965C76.8434 41.72 76.8434 42.7997 77.3996 49.2128C78.0794 57 78.0794 57 81.2621 57C83.9195 57 84.0739 56.771 83.9812 52.452C83.8885 48.3293 83.3015 42.1781 82.9616 41.5891ZM80.613 55.2331C79.9023 54.4806 78.8211 43.0288 79.47 42.6034C80.6132 41.8508 81.0767 41.72 81.8801 49.2782C82.3745 53.8917 81.6327 56.3129 80.613 55.2331Z" fill="#913AF6" fill-opacity="0.7"/>
<path d="M79.3333 120.833V124.333H65.3333V120.833H63V124.333C63 125.617 64.05 126.667 65.3333 126.667H79.3333C80.6167 126.667 81.6667 125.617 81.6667 124.333V120.833H79.3333ZM66.5 113.833L68.145 115.478L71.1667 112.468V122H73.5V112.468L76.5217 115.478L78.1667 113.833L72.3333 108L66.5 113.833Z" fill="#913AF6" fill-opacity="0.7"/>
</svg>
