<svg width="16" height="16" viewBox="0 0 16 16" fill="none" xmlns="http://www.w3.org/2000/svg">
<g clip-path="url(#clip0_8_107)">
<path d="M8.24312 4.33333C10.7698 4.33333 13.0231 5.75333 14.1231 8C13.0231 10.2467 10.7765 11.6667 8.24312 11.6667C5.70979 11.6667 3.46312 10.2467 2.36312 8C3.46312 5.75333 5.71646 4.33333 8.24312 4.33333ZM8.24312 3C4.90979 3 2.06312 5.07333 0.90979 8C2.06312 10.9267 4.90979 13 8.24312 13C11.5765 13 14.4231 10.9267 15.5765 8C14.4231 5.07333 11.5765 3 8.24312 3ZM8.24312 6.33333C9.16312 6.33333 9.90979 7.08 9.90979 8C9.90979 8.92 9.16312 9.66667 8.24312 9.66667C7.32312 9.66667 6.57646 8.92 6.57646 8C6.57646 7.08 7.32312 6.33333 8.24312 6.33333ZM8.24312 5C6.58979 5 5.24312 6.34667 5.24312 8C5.24312 9.65333 6.58979 11 8.24312 11C9.89646 11 11.2431 9.65333 11.2431 8C11.2431 6.34667 9.89646 5 8.24312 5Z" fill="currentColor"/>
</g>
<defs>
<clipPath id="clip0_8_107">
<rect width="16" height="16" fill="transparent" transform="translate(0.243134)"/>
</clipPath>
</defs>
</svg>
