
<svg width="16" height="16" viewBox="0 0 16 16" fill="none" xmlns="http://www.w3.org/2000/svg">
<g clip-path="url(#clip0_83_73)">
<path d="M10.9765 8.86667L10.0098 7.9C10.1098 7.37778 9.95979 6.88889 9.55979 6.43334C9.15979 5.97778 8.64312 5.8 8.00979 5.9L7.04312 4.93334C7.23201 4.84445 7.42357 4.77778 7.61779 4.73334C7.81246 4.68889 8.0209 4.66667 8.24312 4.66667C9.07646 4.66667 9.7849 4.95822 10.3685 5.54134C10.9516 6.12489 11.2431 6.83334 11.2431 7.66667C11.2431 7.88889 11.2209 8.09734 11.1765 8.292C11.132 8.48622 11.0653 8.67778 10.9765 8.86667ZM13.1098 10.9667L12.1431 10.0333C12.5653 9.71111 12.9405 9.35822 13.2685 8.97467C13.596 8.59156 13.8765 8.15556 14.1098 7.66667C13.5542 6.54445 12.7569 5.65267 11.7178 4.99134C10.6791 4.33045 9.5209 4 8.24312 4C7.9209 4 7.60423 4.02222 7.29312 4.06667C6.98201 4.11111 6.67646 4.17778 6.37646 4.26667L5.34312 3.23334C5.79868 3.04445 6.26535 2.90267 6.74312 2.808C7.2209 2.71378 7.7209 2.66667 8.24312 2.66667C9.9209 2.66667 11.4153 3.13045 12.7265 4.058C14.0376 4.986 14.9876 6.18889 15.5765 7.66667C15.3209 8.32222 14.9849 8.93067 14.5685 9.492C14.1516 10.0529 13.6653 10.5444 13.1098 10.9667ZM13.4431 15.0667L10.6431 12.3C10.2542 12.4222 9.86268 12.514 9.46846 12.5753C9.07379 12.6362 8.66535 12.6667 8.24312 12.6667C6.56535 12.6667 5.0709 12.2029 3.75979 11.2753C2.44868 10.3473 1.49868 9.14445 0.90979 7.66667C1.14312 7.07778 1.43757 6.53045 1.79312 6.02467C2.14868 5.51934 2.55423 5.06667 3.00979 4.66667L1.17646 2.8L2.10979 1.86667L14.3765 14.1333L13.4431 15.0667ZM3.94312 5.6C3.6209 5.88889 3.32646 6.20556 3.05979 6.55C2.79312 6.89445 2.56535 7.26667 2.37646 7.66667C2.93201 8.78889 3.72912 9.68045 4.76779 10.3413C5.8069 11.0027 6.96535 11.3333 8.24312 11.3333C8.46535 11.3333 8.68201 11.3196 8.89312 11.292C9.10423 11.264 9.3209 11.2333 9.54312 11.2L8.94312 10.5667C8.8209 10.6 8.70423 10.6249 8.59312 10.6413C8.48201 10.6582 8.36535 10.6667 8.24312 10.6667C7.40979 10.6667 6.70135 10.3751 6.11779 9.792C5.53468 9.20845 5.24312 8.5 5.24312 7.66667C5.24312 7.54445 5.25135 7.42778 5.26779 7.31667C5.28468 7.20556 5.30979 7.08889 5.34312 6.96667L3.94312 5.6Z" fill="currentColor"/>
</g>
<defs>
<clipPath id="clip0_83_73">
<rect width="16" height="16" fill="white" transform="translate(0.243134)"/>
</clipPath>
</defs>
</svg>
