<svg width="24" height="24" viewBox="0 0 24 24" fill="none" xmlns="http://www.w3.org/2000/svg">
<path d="M9.33026 22L8.92679 18.8C8.70824 18.7167 8.50231 18.6167 8.30898 18.5C8.11565 18.3833 7.92652 18.2583 7.7416 18.125L4.74078 19.375L1.96692 14.625L4.56426 12.675C4.54745 12.5583 4.53905 12.4458 4.53905 12.3375V11.6625C4.53905 11.5542 4.54745 11.4417 4.56426 11.325L1.96692 9.375L4.74078 4.625L7.7416 5.875C7.92652 5.74167 8.11985 5.61667 8.32159 5.5C8.52332 5.38333 8.72506 5.28333 8.92679 5.2L9.33026 2H14.878L15.2815 5.2C15.5 5.28333 15.7059 5.38333 15.8993 5.5C16.0926 5.61667 16.2817 5.74167 16.4667 5.875L19.4675 4.625L22.2413 9.375L19.644 11.325C19.6608 11.4417 19.6692 11.5542 19.6692 11.6625V12.3375C19.6692 12.4458 19.6524 12.5583 19.6188 12.675L22.2161 14.625L19.4423 19.375L16.4667 18.125C16.2817 18.2583 16.0884 18.3833 15.8867 18.5C15.6849 18.6167 15.4832 18.7167 15.2815 18.8L14.878 22H9.33026ZM11.0954 20H13.0876L13.4406 17.35C13.9618 17.2167 14.4451 17.0208 14.8906 16.7625C15.3361 16.5042 15.7438 16.1917 16.1136 15.825L18.6101 16.85L19.5936 15.15L17.4249 13.525C17.509 13.2917 17.5678 13.0458 17.6014 12.7875C17.635 12.5292 17.6518 12.2667 17.6518 12C17.6518 11.7333 17.635 11.4708 17.6014 11.2125C17.5678 10.9542 17.509 10.7083 17.4249 10.475L19.5936 8.85L18.6101 7.15L16.1136 8.2C15.7438 7.81667 15.3361 7.49583 14.8906 7.2375C14.4451 6.97917 13.9618 6.78333 13.4406 6.65L13.1128 4H11.1207L10.7676 6.65C10.2465 6.78333 9.76315 6.97917 9.31765 7.2375C8.87215 7.49583 8.46448 7.80833 8.09463 8.175L5.59816 7.15L4.6147 8.85L6.78335 10.45C6.6993 10.7 6.64046 10.95 6.60683 11.2C6.57321 11.45 6.5564 11.7167 6.5564 12C6.5564 12.2667 6.57321 12.525 6.60683 12.775C6.64046 13.025 6.6993 13.275 6.78335 13.525L4.6147 15.15L5.59816 16.85L8.09463 15.8C8.46448 16.1833 8.87215 16.5042 9.31765 16.7625C9.76315 17.0208 10.2465 17.2167 10.7676 17.35L11.0954 20ZM12.1546 15.5C13.1296 15.5 13.9618 15.1583 14.651 14.475C15.3403 13.7917 15.6849 12.9667 15.6849 12C15.6849 11.0333 15.3403 10.2083 14.651 9.525C13.9618 8.84167 13.1296 8.5 12.1546 8.5C11.1627 8.5 10.3263 8.84167 9.64547 9.525C8.96462 10.2083 8.62419 11.0333 8.62419 12C8.62419 12.9667 8.96462 13.7917 9.64547 14.475C10.3263 15.1583 11.1627 15.5 12.1546 15.5Z" fill="currentColor"/>
</svg>
