<svg width="16" height="16" viewBox="0 0 16 16" fill="none" xmlns="http://www.w3.org/2000/svg">
<path d="M3.52021 16C2.74688 16 2.08688 15.7267 1.54021 15.18C0.993548 14.6333 0.720215 13.9733 0.720215 13.2C0.720215 12.4267 0.993548 11.7667 1.54021 11.22C2.08688 10.6733 2.74688 10.4 3.52021 10.4C3.76021 10.4 3.99355 10.43 4.22021 10.49C4.44688 10.55 4.66021 10.6333 4.86021 10.74L7.92021 7.68V5.48C7.33355 5.30667 6.85355 4.97667 6.48021 4.49C6.10688 4.00333 5.92021 3.44 5.92021 2.8C5.92021 2.02667 6.19355 1.36667 6.74021 0.82C7.28688 0.273333 7.94688 0 8.72021 0C9.49355 0 10.1535 0.273333 10.7002 0.82C11.2469 1.36667 11.5202 2.02667 11.5202 2.8C11.5202 3.44 11.3335 4.00333 10.9602 4.49C10.5869 4.97667 10.1069 5.30667 9.52022 5.48V7.68L12.6002 10.74C12.8002 10.6333 13.0102 10.55 13.2302 10.49C13.4502 10.43 13.6802 10.4 13.9202 10.4C14.6935 10.4 15.3535 10.6733 15.9002 11.22C16.4469 11.7667 16.7202 12.4267 16.7202 13.2C16.7202 13.9733 16.4469 14.6333 15.9002 15.18C15.3535 15.7267 14.6935 16 13.9202 16C13.1469 16 12.4869 15.7267 11.9402 15.18C11.3935 14.6333 11.1202 13.9733 11.1202 13.2C11.1202 12.96 11.1502 12.7267 11.2102 12.5C11.2702 12.2733 11.3535 12.06 11.4602 11.86L8.72021 9.12L5.98021 11.86C6.08688 12.06 6.17021 12.2733 6.23021 12.5C6.29021 12.7267 6.32021 12.96 6.32021 13.2C6.32021 13.9733 6.04688 14.6333 5.50021 15.18C4.95355 15.7267 4.29355 16 3.52021 16ZM13.9202 14.4C14.2535 14.4 14.5369 14.2833 14.7702 14.05C15.0035 13.8167 15.1202 13.5333 15.1202 13.2C15.1202 12.8667 15.0035 12.5833 14.7702 12.35C14.5369 12.1167 14.2535 12 13.9202 12C13.5869 12 13.3035 12.1167 13.0702 12.35C12.8369 12.5833 12.7202 12.8667 12.7202 13.2C12.7202 13.5333 12.8369 13.8167 13.0702 14.05C13.3035 14.2833 13.5869 14.4 13.9202 14.4ZM8.72021 4C9.05355 4 9.33688 3.88333 9.57021 3.65C9.80355 3.41667 9.92021 3.13333 9.92021 2.8C9.92021 2.46667 9.80355 2.18333 9.57021 1.95C9.33688 1.71667 9.05355 1.6 8.72021 1.6C8.38688 1.6 8.10355 1.71667 7.87021 1.95C7.63688 2.18333 7.52021 2.46667 7.52021 2.8C7.52021 3.13333 7.63688 3.41667 7.87021 3.65C8.10355 3.88333 8.38688 4 8.72021 4ZM3.52021 14.4C3.85355 14.4 4.13688 14.2833 4.37021 14.05C4.60355 13.8167 4.72021 13.5333 4.72021 13.2C4.72021 12.8667 4.60355 12.5833 4.37021 12.35C4.13688 12.1167 3.85355 12 3.52021 12C3.18688 12 2.90355 12.1167 2.67021 12.35C2.43688 12.5833 2.32021 12.8667 2.32021 13.2C2.32021 13.5333 2.43688 13.8167 2.67021 14.05C2.90355 14.2833 3.18688 14.4 3.52021 14.4Z" fill="currentColor"/>
</svg>
