<svg width="100%" height="100%" viewBox="0 0 24 24" fill="none" xmlns="http://www.w3.org/2000/svg">
<path d="M4.02501 9.00005C3.74168 9.00005 3.50401 8.90405 3.31201 8.71205C3.12068 8.52072 3.02501 8.28338 3.02501 8.00005C3.02501 7.71672 3.12068 7.47905 3.31201 7.28705C3.50401 7.09572 3.74168 7.00005 4.02501 7.00005H5.62501L3.22501 4.60005C3.04168 4.41672 2.95001 4.18338 2.95001 3.90005C2.95001 3.61672 3.04168 3.38338 3.22501 3.20005C3.40835 3.01672 3.64168 2.92505 3.92501 2.92505C4.20835 2.92505 4.44168 3.01672 4.62501 3.20005L7.02501 5.60005V4.00005C7.02501 3.71672 7.12068 3.47905 7.31201 3.28705C7.50401 3.09572 7.74168 3.00005 8.02501 3.00005C8.30835 3.00005 8.54601 3.09572 8.73801 3.28705C8.92935 3.47905 9.02501 3.71672 9.02501 4.00005V8.00005C9.02501 8.28338 8.92935 8.52072 8.73801 8.71205C8.54601 8.90405 8.30835 9.00005 8.02501 9.00005H4.02501ZM20.025 9.00005H16.025C15.7417 9.00005 15.504 8.90405 15.312 8.71205C15.1207 8.52072 15.025 8.28338 15.025 8.00005V4.00005C15.025 3.71672 15.1207 3.47905 15.312 3.28705C15.504 3.09572 15.7417 3.00005 16.025 3.00005C16.3083 3.00005 16.546 3.09572 16.738 3.28705C16.9293 3.47905 17.025 3.71672 17.025 4.00005V5.60005L19.425 3.20005C19.6083 3.01672 19.8417 2.92505 20.125 2.92505C20.4083 2.92505 20.6417 3.01672 20.825 3.20005C21.0083 3.38338 21.1 3.61672 21.1 3.90005C21.1 4.18338 21.0083 4.41672 20.825 4.60005L18.425 7.00005H20.025C20.3083 7.00005 20.546 7.09572 20.738 7.28705C20.9293 7.47905 21.025 7.71672 21.025 8.00005C21.025 8.28338 20.9293 8.52072 20.738 8.71205C20.546 8.90405 20.3083 9.00005 20.025 9.00005ZM3.22501 20.8C3.04168 20.6167 2.95001 20.3834 2.95001 20.1C2.95001 19.8167 3.04168 19.5834 3.22501 19.4L5.62501 17H4.02501C3.74168 17 3.50401 16.904 3.31201 16.712C3.12068 16.5207 3.02501 16.2834 3.02501 16C3.02501 15.7167 3.12068 15.479 3.31201 15.287C3.50401 15.0957 3.74168 15 4.02501 15H8.02501C8.30835 15 8.54601 15.0957 8.73801 15.287C8.92935 15.479 9.02501 15.7167 9.02501 16V20C9.02501 20.2834 8.92935 20.5207 8.73801 20.712C8.54601 20.904 8.30835 21 8.02501 21C7.74168 21 7.50401 20.904 7.31201 20.712C7.12068 20.5207 7.02501 20.2834 7.02501 20V18.4L4.62501 20.8C4.44168 20.9834 4.20835 21.0751 3.92501 21.0751C3.64168 21.0751 3.40835 20.9834 3.22501 20.8ZM16.025 21C15.7417 21 15.504 20.904 15.312 20.712C15.1207 20.5207 15.025 20.2834 15.025 20V16C15.025 15.7167 15.1207 15.479 15.312 15.287C15.504 15.0957 15.7417 15 16.025 15H20.025C20.3083 15 20.546 15.0957 20.738 15.287C20.9293 15.479 21.025 15.7167 21.025 16C21.025 16.2834 20.9293 16.5207 20.738 16.712C20.546 16.904 20.3083 17 20.025 17H18.425L20.825 19.4C21.0083 19.5834 21.1 19.8167 21.1 20.1C21.1 20.3834 21.0083 20.6167 20.825 20.8C20.6417 20.9834 20.4083 21.0751 20.125 21.0751C19.8417 21.0751 19.6083 20.9834 19.425 20.8L17.025 18.4V20C17.025 20.2834 16.9293 20.5207 16.738 20.712C16.546 20.904 16.3083 21 16.025 21Z" fill="currentColor"/>
</svg>
